<svg 
 xmlns="http://www.w3.org/2000/svg"
 xmlns:xlink="http://www.w3.org/1999/xlink"
 width="588px" height="52px">
<path fill-rule="evenodd"  fill="rgb(205, 205, 205)"
 d="M111.375,22.000 L92.625,22.000 C92.280,22.000 92.000,21.720 92.000,21.375 L92.000,7.625 C92.000,7.280 92.280,7.000 92.625,7.000 L94.500,7.000 L94.500,5.125 C94.500,4.780 94.780,4.500 95.125,4.500 L97.000,4.500 L97.000,2.625 C97.000,2.280 97.280,2.000 97.625,2.000 L106.375,2.000 C106.720,2.000 107.000,2.280 107.000,2.625 L107.000,4.500 L108.875,4.500 C109.220,4.500 109.500,4.780 109.500,5.125 L109.500,7.000 L111.375,7.000 C111.720,7.000 112.000,7.280 112.000,7.625 L112.000,21.375 C112.000,21.720 111.720,22.000 111.375,22.000 ZM105.750,3.250 L98.250,3.250 L98.250,4.500 L105.750,4.500 L105.750,3.250 ZM108.250,5.750 L95.750,5.750 L95.750,7.000 L108.250,7.000 L108.250,5.750 ZM110.750,8.250 L93.250,8.250 L93.250,20.750 L110.750,20.750 L110.750,8.250 ZM100.750,15.750 C101.211,15.750 101.632,15.846 102.000,16.002 L102.000,10.125 C102.000,10.104 102.010,10.086 102.012,10.066 C102.014,10.047 102.007,10.030 102.011,10.010 C102.015,9.987 102.029,9.971 102.035,9.950 C102.049,9.907 102.064,9.867 102.085,9.829 C102.102,9.796 102.122,9.767 102.145,9.739 C102.174,9.704 102.204,9.674 102.239,9.645 C102.265,9.624 102.292,9.605 102.324,9.589 C102.362,9.566 102.401,9.550 102.444,9.536 C102.481,9.525 102.517,9.519 102.556,9.514 C102.580,9.511 102.601,9.500 102.625,9.500 C102.646,9.500 102.664,9.510 102.684,9.511 C102.702,9.512 102.721,9.506 102.740,9.510 C103.781,9.705 105.750,10.591 105.750,12.546 C105.750,12.891 105.470,13.171 105.125,13.171 C104.780,13.171 104.500,12.891 104.500,12.546 C104.500,11.710 103.816,11.239 103.250,10.987 L103.250,17.625 C103.250,18.676 102.151,19.500 100.750,19.500 C99.349,19.500 98.250,18.676 98.250,17.625 C98.250,16.574 99.349,15.750 100.750,15.750 ZM100.750,18.250 C101.502,18.250 102.000,17.874 102.000,17.625 C102.000,17.376 101.502,17.000 100.750,17.000 C99.997,17.000 99.500,17.376 99.500,17.625 C99.500,17.874 99.997,18.250 100.750,18.250 Z"/>
<path fill-rule="evenodd"  fill="rgb(205, 205, 205)"
 d="M143.999,7.920 C143.999,7.929 143.999,7.939 143.998,7.948 C143.997,7.954 143.997,7.960 143.996,7.966 C143.995,7.974 143.994,7.982 143.992,7.990 C143.991,7.997 143.990,8.003 143.988,8.009 C143.987,8.017 143.985,8.024 143.983,8.031 C143.981,8.038 143.979,8.044 143.977,8.050 C143.975,8.058 143.972,8.065 143.970,8.072 C143.967,8.078 143.965,8.084 143.963,8.090 C143.959,8.097 143.956,8.104 143.952,8.111 C143.950,8.117 143.947,8.122 143.944,8.128 C143.940,8.135 143.935,8.143 143.931,8.150 C143.928,8.155 143.925,8.159 143.922,8.164 C143.915,8.175 143.907,8.186 143.898,8.197 L143.897,8.198 C143.897,8.198 143.897,8.198 143.897,8.198 L132.847,21.834 C132.846,21.835 132.845,21.836 132.844,21.837 C132.835,21.849 132.825,21.860 132.814,21.870 C132.813,21.871 132.811,21.873 132.810,21.874 C132.801,21.883 132.791,21.892 132.781,21.900 C132.777,21.902 132.774,21.905 132.771,21.908 C132.760,21.916 132.749,21.923 132.738,21.931 C132.737,21.931 132.736,21.932 132.735,21.933 C132.722,21.941 132.709,21.948 132.696,21.954 C132.693,21.956 132.689,21.957 132.686,21.959 C132.675,21.964 132.664,21.969 132.652,21.973 C132.649,21.974 132.647,21.975 132.644,21.976 C132.630,21.981 132.616,21.985 132.601,21.988 C132.598,21.989 132.596,21.989 132.593,21.990 C132.581,21.992 132.569,21.994 132.557,21.996 C132.553,21.996 132.549,21.997 132.545,21.997 C132.530,21.999 132.515,22.000 132.500,22.000 C132.485,22.000 132.470,21.999 132.455,21.997 C132.451,21.997 132.447,21.996 132.443,21.996 C132.431,21.994 132.419,21.992 132.407,21.990 C132.404,21.989 132.401,21.989 132.398,21.988 C132.384,21.985 132.370,21.981 132.356,21.976 C132.353,21.975 132.350,21.974 132.347,21.973 C132.336,21.969 132.325,21.964 132.314,21.959 C132.310,21.957 132.307,21.956 132.304,21.954 C132.290,21.948 132.277,21.941 132.265,21.933 C132.264,21.932 132.263,21.931 132.262,21.931 C132.250,21.923 132.239,21.916 132.229,21.908 C132.225,21.905 132.222,21.902 132.219,21.900 C132.209,21.892 132.199,21.883 132.190,21.874 C132.188,21.873 132.187,21.871 132.186,21.870 C132.175,21.860 132.165,21.849 132.155,21.837 C132.154,21.836 132.153,21.835 132.152,21.834 L121.103,8.198 C121.102,8.198 121.102,8.198 121.102,8.198 L121.102,8.197 C121.093,8.186 121.085,8.175 121.077,8.164 C121.074,8.159 121.072,8.155 121.069,8.150 C121.064,8.143 121.059,8.135 121.055,8.128 C121.052,8.122 121.050,8.117 121.047,8.111 C121.044,8.104 121.040,8.097 121.037,8.090 C121.035,8.084 121.032,8.078 121.030,8.072 C121.027,8.064 121.025,8.057 121.022,8.050 C121.020,8.044 121.019,8.038 121.017,8.031 C121.015,8.024 121.013,8.017 121.011,8.009 C121.010,8.003 121.009,7.997 121.007,7.990 C121.006,7.982 121.005,7.974 121.004,7.966 C121.003,7.960 121.002,7.954 121.002,7.948 C121.001,7.939 121.001,7.930 121.000,7.920 C121.000,7.916 121.000,7.913 121.000,7.909 C121.000,7.908 121.000,7.907 121.000,7.905 C121.000,7.893 121.001,7.881 121.002,7.869 C121.002,7.867 121.002,7.864 121.002,7.862 C121.004,7.848 121.006,7.834 121.009,7.820 C121.010,7.815 121.011,7.809 121.013,7.803 C121.015,7.795 121.016,7.787 121.019,7.780 C121.021,7.773 121.023,7.767 121.025,7.761 C121.027,7.754 121.030,7.747 121.032,7.740 C121.035,7.733 121.038,7.727 121.040,7.721 C121.043,7.714 121.047,7.708 121.050,7.701 C121.053,7.695 121.056,7.689 121.059,7.684 C121.063,7.677 121.067,7.671 121.071,7.664 C121.074,7.659 121.078,7.653 121.082,7.648 C121.086,7.642 121.090,7.636 121.095,7.630 C121.099,7.625 121.103,7.619 121.107,7.614 C121.109,7.612 121.111,7.610 121.112,7.608 L125.874,2.153 C125.875,2.152 125.877,2.151 125.878,2.150 C125.885,2.142 125.893,2.134 125.901,2.126 C125.904,2.123 125.907,2.120 125.910,2.117 C125.919,2.108 125.929,2.100 125.940,2.092 C125.942,2.091 125.943,2.089 125.945,2.088 C125.958,2.079 125.970,2.070 125.984,2.062 C125.984,2.062 125.984,2.062 125.984,2.062 C126.010,2.047 126.039,2.033 126.069,2.023 C126.069,2.023 126.069,2.023 126.069,2.023 C126.074,2.022 126.079,2.020 126.084,2.019 C126.094,2.016 126.104,2.013 126.115,2.011 C126.119,2.010 126.123,2.009 126.127,2.008 C126.138,2.006 126.150,2.004 126.161,2.003 C126.165,2.002 126.169,2.002 126.173,2.002 C126.184,2.001 126.196,2.000 126.208,2.000 C126.209,2.000 126.210,2.000 126.211,2.000 L138.789,2.000 C138.790,2.000 138.791,2.000 138.792,2.000 C138.804,2.000 138.816,2.001 138.828,2.002 C138.831,2.002 138.835,2.002 138.839,2.003 C138.850,2.004 138.862,2.006 138.874,2.009 C138.878,2.009 138.881,2.010 138.885,2.010 C138.896,2.013 138.906,2.016 138.917,2.019 C138.921,2.021 138.926,2.022 138.930,2.023 C138.931,2.023 138.931,2.023 138.931,2.023 C138.961,2.033 138.989,2.046 139.016,2.062 C139.016,2.062 139.016,2.062 139.016,2.062 C139.029,2.070 139.042,2.079 139.054,2.088 C139.056,2.089 139.058,2.091 139.060,2.092 C139.071,2.100 139.080,2.108 139.090,2.117 C139.093,2.120 139.096,2.123 139.099,2.126 C139.107,2.134 139.115,2.142 139.122,2.150 C139.123,2.151 139.125,2.152 139.126,2.153 L143.887,7.608 C143.889,7.610 143.891,7.612 143.892,7.614 C143.897,7.619 143.901,7.624 143.905,7.630 C143.909,7.636 143.914,7.642 143.918,7.648 C143.922,7.653 143.925,7.659 143.929,7.664 C143.933,7.671 143.937,7.677 143.941,7.684 C143.944,7.689 143.947,7.695 143.950,7.701 C143.953,7.708 143.956,7.714 143.960,7.721 C143.962,7.727 143.965,7.733 143.967,7.740 C143.970,7.747 143.973,7.754 143.975,7.761 C143.977,7.767 143.979,7.773 143.981,7.780 C143.983,7.787 143.985,7.795 143.987,7.803 C143.989,7.809 143.990,7.814 143.991,7.820 C143.994,7.834 143.996,7.848 143.997,7.862 C143.998,7.864 143.998,7.867 143.998,7.869 C143.999,7.881 144.000,7.893 144.000,7.905 C144.000,7.907 144.000,7.908 144.000,7.909 C144.000,7.913 143.999,7.916 143.999,7.920 ZM131.304,19.353 L127.684,8.364 L122.398,8.364 L131.304,19.353 ZM126.031,3.347 L122.445,7.454 L127.384,7.454 L126.031,3.347 ZM126.834,2.909 L128.179,6.991 L131.541,2.909 L126.834,2.909 ZM128.967,7.454 L130.703,7.454 C130.951,7.454 131.152,7.658 131.152,7.909 C131.152,8.160 130.951,8.364 130.703,8.364 L128.631,8.364 L132.500,20.108 L136.369,8.364 L134.255,8.364 C134.006,8.364 133.805,8.160 133.805,7.909 C133.805,7.658 134.006,7.454 134.255,7.454 L136.033,7.454 L132.500,3.164 L128.967,7.454 ZM133.459,2.909 L136.821,6.991 L138.166,2.909 L133.459,2.909 ZM138.968,3.347 L137.615,7.454 L142.554,7.454 L138.968,3.347 ZM137.316,8.364 L133.696,19.353 L142.601,8.364 L137.316,8.364 ZM132.500,8.364 C132.252,8.364 132.051,8.160 132.051,7.909 C132.051,7.658 132.252,7.454 132.500,7.454 C132.748,7.454 132.949,7.658 132.949,7.909 C132.949,8.160 132.748,8.364 132.500,8.364 Z"/>
<path fill-rule="evenodd"  fill="rgb(205, 205, 205)"
 d="M172.004,12.095 C172.004,9.400 170.964,6.864 169.076,4.959 C167.188,3.054 164.675,2.004 162.004,2.004 C159.333,2.004 156.820,3.054 154.932,4.959 C153.044,6.864 152.004,9.400 152.004,12.095 L152.004,16.873 C152.004,19.572 154.183,21.771 156.859,21.771 C157.179,21.771 157.436,21.512 157.436,21.188 L157.436,12.561 C157.436,12.238 157.179,11.978 156.859,11.978 C155.377,11.978 154.050,12.648 153.160,13.706 L153.160,12.095 C153.160,7.175 157.128,3.171 162.004,3.171 C166.880,3.171 170.848,7.175 170.848,12.095 C170.848,12.134 170.852,12.173 170.861,12.212 C170.852,12.250 170.848,12.289 170.848,12.328 L170.848,13.939 C169.958,12.881 168.631,12.212 167.150,12.212 C166.828,12.212 166.572,12.471 166.572,12.795 L166.572,21.421 C166.572,21.745 166.828,22.004 167.150,22.004 C169.825,22.004 172.004,19.806 172.004,17.106 L172.004,12.328 C172.004,12.289 172.000,12.250 171.991,12.212 C172.000,12.173 172.004,12.134 172.004,12.095 ZM156.276,13.188 L156.276,20.557 C154.512,20.276 153.155,18.730 153.155,16.873 C153.160,15.015 154.512,13.469 156.276,13.188 ZM167.732,20.790 L167.732,13.421 C169.495,13.702 170.852,15.248 170.852,17.106 C170.848,18.968 169.495,20.510 167.732,20.790 Z"/>
<path fill-rule="evenodd"  fill="rgb(205, 205, 205)"
 d="M198.847,19.579 C198.569,19.803 198.163,19.757 197.941,19.475 C197.719,19.193 197.765,18.783 198.044,18.558 C200.374,16.679 201.711,13.872 201.711,10.858 C201.711,7.844 200.374,5.038 198.044,3.158 C197.765,2.933 197.719,2.523 197.941,2.241 C198.163,1.959 198.569,1.913 198.847,2.138 C201.486,4.266 203.000,7.445 203.000,10.858 C203.000,14.272 201.486,17.450 198.847,19.579 ZM196.698,16.857 C196.420,17.081 196.014,17.035 195.792,16.752 C195.571,16.470 195.617,16.060 195.896,15.836 C197.407,14.619 198.273,12.805 198.273,10.858 C198.273,8.911 197.407,7.097 195.896,5.881 C195.617,5.656 195.571,5.246 195.792,4.964 C196.014,4.682 196.419,4.635 196.698,4.860 C198.518,6.325 199.562,8.511 199.562,10.858 C199.562,13.205 198.518,15.391 196.698,16.857 ZM192.644,14.063 L192.644,21.348 C192.644,21.708 192.356,22.000 192.000,22.000 C191.644,22.000 191.355,21.708 191.355,21.348 L191.355,14.063 C189.886,13.760 188.777,12.442 188.777,10.867 C188.777,9.068 190.223,7.605 192.000,7.605 C193.777,7.605 195.223,9.068 195.223,10.867 C195.223,12.442 194.114,13.760 192.644,14.063 ZM192.000,8.910 C190.934,8.910 190.066,9.788 190.066,10.867 C190.066,11.946 190.934,12.824 192.000,12.824 C193.066,12.824 193.934,11.946 193.934,10.867 C193.934,9.788 193.066,8.910 192.000,8.910 ZM188.207,16.752 C187.986,17.034 187.580,17.081 187.302,16.857 C185.481,15.391 184.437,13.205 184.437,10.858 C184.437,8.511 185.481,6.325 187.302,4.859 C187.580,4.635 187.986,4.682 188.207,4.964 C188.429,5.246 188.383,5.656 188.104,5.881 C186.593,7.097 185.726,8.911 185.726,10.858 C185.726,12.805 186.593,14.619 188.104,15.836 C188.383,16.060 188.429,16.470 188.207,16.752 ZM182.289,10.858 C182.289,13.872 183.626,16.679 185.956,18.559 C186.235,18.783 186.281,19.194 186.059,19.475 C185.837,19.757 185.431,19.803 185.153,19.579 C182.514,17.450 181.000,14.272 181.000,10.858 C181.000,7.445 182.514,4.266 185.153,2.138 C185.431,1.913 185.837,1.959 186.059,2.241 C186.280,2.523 186.235,2.933 185.956,3.158 C183.626,5.037 182.289,7.844 182.289,10.858 Z"/>
<path fill-rule="evenodd"  fill="rgb(205, 205, 205)"
 d="M229.656,22.000 L214.344,22.000 C213.051,22.000 212.000,20.949 212.000,19.656 L212.000,14.227 L213.562,14.227 L213.562,19.656 C213.562,20.087 213.913,20.437 214.344,20.437 L229.656,20.437 C230.087,20.437 230.437,20.087 230.437,19.656 L230.437,14.227 L232.000,14.227 L232.000,19.656 C232.000,20.949 230.949,22.000 229.656,22.000 ZM217.145,12.312 L218.250,11.208 L221.219,14.176 L221.219,2.000 L222.781,2.000 L222.781,14.176 L225.750,11.208 L226.855,12.312 L222.000,17.167 L217.145,12.312 Z"/>
<path fill-rule="evenodd"  fill="rgb(205, 205, 205)"
 d="M259.663,7.237 C259.612,6.892 259.320,6.651 258.976,6.651 L255.024,6.651 L255.024,5.032 C255.024,3.361 253.667,2.000 252.000,2.000 C250.333,2.000 248.976,3.361 248.976,5.032 L248.976,6.651 L245.024,6.651 C244.680,6.651 244.388,6.892 244.337,7.237 L242.034,21.190 C242.000,21.397 242.051,21.604 242.189,21.759 C242.326,21.914 242.515,22.000 242.722,22.000 L261.278,22.000 C261.278,22.000 261.278,22.000 261.295,22.000 C261.691,22.000 262.000,21.690 262.000,21.294 C262.000,21.208 261.983,21.139 261.966,21.070 L259.663,7.237 ZM250.385,5.032 C250.385,4.136 251.106,3.413 252.000,3.413 C252.893,3.413 253.615,4.136 253.615,5.032 L253.615,6.651 L250.385,6.651 L250.385,5.032 ZM243.546,20.605 L245.625,8.064 L248.976,8.064 L248.976,12.009 C248.976,12.405 249.285,12.715 249.680,12.715 C250.075,12.715 250.385,12.405 250.385,12.009 L250.385,8.064 L253.615,8.064 L253.615,12.009 C253.615,12.405 253.924,12.715 254.320,12.715 C254.715,12.715 255.024,12.405 255.024,12.009 L255.024,8.064 L258.375,8.064 L260.454,20.605 L243.546,20.605 Z"/>
<path fill-rule="evenodd"  fill="rgb(205, 205, 205)"
 d="M290.614,5.670 C289.676,4.593 288.376,4.000 286.953,4.000 C284.951,4.000 283.684,5.211 282.973,6.227 C282.789,6.490 282.632,6.755 282.500,7.003 C282.368,6.755 282.211,6.490 282.027,6.227 C281.316,5.211 280.049,4.000 278.047,4.000 C276.623,4.000 275.323,4.593 274.386,5.670 C273.492,6.697 273.000,8.073 273.000,9.544 C273.000,11.145 273.617,12.634 274.942,14.231 C276.127,15.657 277.831,17.128 279.804,18.831 C280.539,19.465 281.300,20.122 282.109,20.839 L282.133,20.860 C282.238,20.954 282.369,21.000 282.500,21.000 C282.631,21.000 282.762,20.953 282.867,20.860 L282.891,20.839 C283.700,20.122 284.461,19.465 285.196,18.831 C287.169,17.128 288.873,15.657 290.057,14.231 C291.383,12.634 292.000,11.145 292.000,9.544 C292.000,8.073 291.508,6.697 290.614,5.670 ZM284.474,17.973 C283.840,18.520 283.188,19.083 282.500,19.688 C281.812,19.083 281.160,18.520 280.526,17.973 C276.664,14.640 274.113,12.438 274.113,9.544 C274.113,8.348 274.507,7.237 275.221,6.415 C275.944,5.585 276.948,5.127 278.047,5.127 C279.573,5.127 280.560,6.080 281.119,6.879 C281.620,7.595 281.881,8.317 281.971,8.595 C282.045,8.827 282.259,8.984 282.500,8.984 C282.741,8.984 282.955,8.827 283.029,8.595 C283.118,8.317 283.380,7.595 283.881,6.879 C284.440,6.080 285.427,5.127 286.953,5.127 C288.052,5.127 289.056,5.585 289.778,6.415 C290.493,7.237 290.887,8.348 290.887,9.544 C290.887,12.438 288.336,14.640 284.474,17.973 Z"/>
<path fill-rule="evenodd"  fill="rgb(205, 205, 205)"
 d="M313.974,12.734 L316.471,14.733 L315.638,15.918 L312.587,13.475 L312.587,5.331 L313.974,5.331 L313.974,12.734 ZM321.724,17.007 C319.131,21.782 313.402,23.408 308.928,20.640 L309.625,19.360 C310.406,19.843 311.257,20.180 312.144,20.359 C316.468,21.229 320.634,18.192 321.449,13.577 C322.264,8.961 319.419,4.514 315.095,3.644 C310.771,2.774 306.605,5.810 305.790,10.426 L307.935,8.139 L308.916,9.186 L304.958,13.411 L301.000,9.186 L301.981,8.139 L304.356,10.675 C304.977,5.714 308.939,2.008 313.627,2.000 C315.276,2.000 316.895,2.466 318.321,3.348 C322.794,6.117 324.318,12.232 321.724,17.007 ZM306.891,16.554 L305.721,17.348 C305.452,16.898 305.218,16.426 305.021,15.935 L306.296,15.351 C306.464,15.769 306.663,16.171 306.891,16.554 ZM308.578,18.583 L307.699,19.730 C307.314,19.392 306.954,19.023 306.622,18.625 L307.663,17.642 C307.944,17.981 308.250,18.295 308.578,18.583 Z"/>
<path fill-rule="evenodd"  fill="rgb(205, 205, 205)"
 d="M351.343,4.572 C351.120,4.435 350.831,4.421 350.595,4.545 L345.487,7.172 C345.079,7.227 344.777,7.585 344.791,8.011 L345.040,16.071 C344.593,15.879 344.095,15.769 343.543,15.769 C343.044,15.769 342.545,15.851 342.059,16.016 C340.037,16.690 338.829,18.479 339.314,20.088 C339.669,21.243 340.838,22.000 342.309,22.000 C342.808,22.000 343.306,21.917 343.792,21.752 C345.618,21.147 346.773,19.648 346.642,18.190 C346.668,18.107 346.681,18.011 346.681,17.901 L346.537,13.087 L351.514,10.776 C351.816,10.638 352.000,10.322 351.987,9.978 L351.751,5.246 C351.724,4.957 351.580,4.710 351.343,4.572 ZM343.320,20.171 C342.978,20.281 342.637,20.336 342.309,20.336 C341.547,20.336 340.943,20.033 340.812,19.579 C340.628,18.974 341.284,17.997 342.532,17.585 C342.873,17.475 343.215,17.419 343.543,17.419 C344.305,17.419 344.909,17.722 345.040,18.176 C345.224,18.795 344.567,19.758 343.320,20.171 ZM346.471,11.298 L346.393,8.547 L350.227,6.580 L350.372,9.497 L346.471,11.298 ZM345.789,3.651 L332.788,3.651 C332.354,3.651 332.000,3.279 332.000,2.825 C332.000,2.371 332.354,2.000 332.788,2.000 L345.789,2.000 C346.222,2.000 346.576,2.371 346.576,2.825 C346.576,3.279 346.222,3.651 345.789,3.651 ZM341.980,7.640 C341.980,8.094 341.626,8.465 341.192,8.465 L332.788,8.465 C332.354,8.465 332.000,8.093 332.000,7.640 C332.000,7.186 332.354,6.814 332.788,6.814 L341.192,6.814 C341.626,6.814 341.980,7.186 341.980,7.640 ZM341.980,12.316 C341.980,12.770 341.626,13.142 341.192,13.142 L332.788,13.142 C332.354,13.142 332.000,12.770 332.000,12.316 C332.000,11.862 332.354,11.491 332.788,11.491 L341.192,11.491 C341.626,11.491 341.980,11.862 341.980,12.316 Z"/>
<path fill-rule="evenodd"  fill="rgb(205, 205, 205)"
 d="M378.200,16.143 L378.200,21.000 L375.800,21.000 L375.800,16.143 L371.000,16.143 L371.000,13.714 L375.800,13.714 L375.800,8.857 L378.200,8.857 L378.200,13.714 L383.000,13.714 L383.000,16.143 L378.200,16.143 ZM359.000,8.857 L373.400,8.857 L373.400,11.286 L359.000,11.286 L359.000,8.857 ZM359.000,4.000 L373.400,4.000 L373.400,6.429 L359.000,6.429 L359.000,4.000 ZM368.600,16.143 L359.000,16.143 L359.000,13.714 L368.600,13.714 L368.600,16.143 Z"/>
<path fill-rule="evenodd"  fill="rgb(255, 255, 255)"
 d="M407.608,18.608 C407.097,19.120 406.267,19.120 405.755,18.608 L402.547,15.400 C403.290,14.922 403.922,14.290 404.400,13.547 L407.608,16.755 C408.120,17.267 408.120,18.097 407.608,18.608 ZM399.254,15.497 C396.358,15.497 394.011,13.149 394.011,10.254 C394.011,7.358 396.358,5.011 399.254,5.011 C402.149,5.011 404.497,7.358 404.497,10.254 C404.497,13.149 402.149,15.497 399.254,15.497 ZM399.254,6.322 C397.085,6.322 395.322,8.085 395.322,10.254 C395.322,12.422 397.085,14.186 399.254,14.186 C401.422,14.186 403.186,12.422 403.186,10.254 C403.186,8.085 401.422,6.322 399.254,6.322 ZM397.069,10.254 L396.195,10.254 C396.195,8.568 397.568,7.195 399.254,7.195 L399.254,8.069 C398.049,8.069 397.069,9.049 397.069,10.254 Z"/>
<path fill-rule="evenodd"  fill="rgb(255, 255, 255)"
 d="M473.575,15.731 C472.711,18.955 470.642,21.650 467.751,23.319 C465.824,24.431 463.686,24.999 461.520,24.999 C460.434,24.999 459.341,24.857 458.264,24.568 C455.039,23.704 452.343,21.636 450.674,18.745 C449.004,15.854 448.560,12.486 449.425,9.261 C450.289,6.037 452.357,3.342 455.249,1.673 C458.141,0.003 461.510,-0.440 464.735,0.424 C467.961,1.288 470.657,3.356 472.326,6.247 C473.996,9.138 474.439,12.506 473.575,15.731 ZM471.199,6.898 C469.703,4.308 467.288,2.455 464.398,1.681 C463.434,1.423 462.454,1.295 461.482,1.295 C459.541,1.295 457.626,1.804 455.900,2.800 C453.309,4.295 451.456,6.710 450.682,9.598 C449.908,12.487 450.305,15.504 451.801,18.094 C453.297,20.684 455.712,22.537 458.601,23.311 C461.491,24.085 464.509,23.688 467.099,22.192 C469.690,20.697 471.543,18.283 472.317,15.394 C473.092,12.505 472.694,9.488 471.199,6.898 ZM468.670,7.608 C468.476,7.608 468.283,7.521 468.155,7.356 C466.814,5.624 464.798,4.460 462.623,4.163 C462.267,4.114 462.018,3.786 462.066,3.430 C462.115,3.074 462.444,2.825 462.800,2.873 C465.309,3.216 467.637,4.559 469.185,6.559 C469.405,6.843 469.353,7.252 469.068,7.472 C468.950,7.564 468.810,7.608 468.670,7.608 ZM468.179,12.496 C468.179,12.988 467.925,13.430 467.498,13.676 L459.460,18.315 C459.247,18.438 459.013,18.500 458.779,18.500 C458.545,18.500 458.311,18.438 458.098,18.315 C457.671,18.069 457.417,17.628 457.417,17.135 L457.417,7.856 C457.417,7.364 457.671,6.923 458.098,6.677 C458.525,6.431 459.034,6.431 459.460,6.677 L467.498,11.316 C467.924,11.563 468.179,12.003 468.179,12.496 ZM466.847,12.444 L458.809,7.804 C458.803,7.801 458.793,7.795 458.780,7.795 C458.771,7.795 458.761,7.798 458.749,7.804 C458.719,7.822 458.719,7.845 458.719,7.856 L458.719,17.135 C458.719,17.147 458.719,17.170 458.749,17.188 C458.779,17.205 458.799,17.193 458.809,17.188 L466.847,12.548 C466.857,12.543 466.877,12.531 466.877,12.496 C466.877,12.461 466.857,12.449 466.847,12.444 Z"/>
<path fill-rule="evenodd"  fill="rgb(255, 255, 255)"
 d="M437.545,20.000 L436.727,17.750 L433.273,17.750 L432.454,20.000 L431.000,20.000 L434.273,11.000 L435.727,11.000 L439.000,20.000 L437.545,20.000 ZM435.000,12.999 L433.818,16.250 L436.182,16.250 L435.000,12.999 ZM429.807,12.901 L429.785,12.924 L431.633,14.806 L431.080,16.332 L428.818,14.000 L425.182,17.750 L424.153,16.689 L427.851,12.920 C426.942,11.877 426.214,10.722 425.684,9.500 L427.138,9.500 C427.582,10.392 428.142,11.236 428.818,12.012 C429.865,10.812 430.633,9.440 431.124,7.992 L423.000,7.992 L423.000,6.500 L428.091,6.500 L428.091,5.000 L429.545,5.000 L429.545,6.500 L434.636,6.500 L434.636,8.004 L432.505,8.004 C431.974,9.774 431.073,11.446 429.807,12.901 Z"/>
<path fill-rule="evenodd"  fill="rgb(205, 205, 205)"
 d="M52.312,19.286 L48.875,19.286 L48.875,21.321 C48.875,21.696 48.567,22.000 48.187,22.000 L35.812,22.000 C35.433,22.000 35.125,21.696 35.125,21.321 L35.125,19.286 L31.687,19.286 C31.308,19.286 31.000,18.982 31.000,18.607 L31.000,6.393 C31.000,6.018 31.308,5.714 31.687,5.714 L35.125,5.714 L35.125,3.679 C35.125,3.304 35.433,3.000 35.812,3.000 L48.187,3.000 C48.567,3.000 48.875,3.304 48.875,3.679 L48.875,5.714 L52.312,5.714 C52.692,5.714 53.000,6.018 53.000,6.393 L53.000,18.607 C53.000,18.982 52.692,19.286 52.312,19.286 ZM35.125,7.071 L32.375,7.071 L32.375,17.928 L35.125,17.928 L35.125,7.071 ZM47.500,4.357 L36.500,4.357 L36.500,20.643 L47.500,20.643 L47.500,4.357 ZM51.625,7.071 L48.875,7.071 L48.875,17.928 L51.625,17.928 L51.625,7.071 ZM40.625,13.857 C41.132,13.857 41.596,13.962 42.000,14.131 L42.000,7.750 C42.000,7.548 42.092,7.356 42.249,7.227 C42.405,7.098 42.613,7.044 42.815,7.084 C43.959,7.295 46.125,8.257 46.125,10.379 C46.125,10.753 45.817,11.057 45.437,11.057 C45.058,11.057 44.750,10.753 44.750,10.379 C44.750,9.472 43.998,8.955 43.375,8.681 L43.375,15.893 C43.375,17.034 42.168,17.928 40.625,17.928 C39.082,17.928 37.875,17.034 37.875,15.893 C37.875,14.751 39.082,13.857 40.625,13.857 ZM40.625,16.571 C41.464,16.571 42.000,16.170 42.000,15.893 C42.000,15.616 41.464,15.214 40.625,15.214 C39.786,15.214 39.250,15.616 39.250,15.893 C39.250,16.170 39.786,16.571 40.625,16.571 Z"/>
<path fill-rule="evenodd"  fill="rgb(205, 205, 205)"
 d="M71.200,18.130 L71.200,20.750 L69.250,20.750 C68.891,20.750 68.600,21.031 68.600,21.375 C68.600,21.719 68.891,22.000 69.250,22.000 L75.750,22.000 C76.108,22.000 76.400,21.719 76.400,21.375 C76.400,21.031 76.108,20.750 75.750,20.750 L73.800,20.750 L73.800,18.123 C76.508,17.608 79.000,15.501 79.000,12.000 L79.000,10.125 C79.000,9.780 78.708,9.500 78.350,9.500 C77.992,9.500 77.700,9.780 77.700,10.125 L77.700,12.000 C77.700,15.282 75.082,17.000 72.500,17.000 C69.995,17.000 67.300,15.435 67.300,12.000 L67.300,10.125 C67.300,9.780 67.009,9.500 66.650,9.500 C66.291,9.500 66.000,9.780 66.000,10.125 L66.000,12.000 C66.000,15.550 68.448,17.632 71.200,18.130 ZM72.500,15.750 C74.650,15.750 76.400,14.068 76.400,12.000 L76.400,5.750 C76.400,3.683 74.650,2.000 72.500,2.000 C70.350,2.000 68.600,3.683 68.600,5.750 L68.600,12.000 C68.600,14.068 70.350,15.750 72.500,15.750 ZM69.900,5.750 C69.900,4.369 71.063,3.250 72.500,3.250 C73.937,3.250 75.100,4.369 75.100,5.750 L75.100,12.000 C75.100,13.382 73.937,14.500 72.500,14.500 C71.063,14.500 69.900,13.382 69.900,12.000 L69.900,5.750 Z"/>
<path fill-rule="evenodd"  fill="rgb(205, 205, 205)"
 d="M22.879,10.710 C22.763,10.866 22.581,10.948 22.397,10.948 C22.275,10.948 22.151,10.912 22.045,10.836 L11.504,3.299 L0.962,10.836 C0.696,11.026 0.323,10.969 0.128,10.710 C-0.067,10.450 -0.009,10.085 0.257,9.895 L11.151,2.106 C11.361,1.955 11.646,1.955 11.857,2.106 L22.750,9.895 C23.017,10.085 23.074,10.450 22.879,10.710 ZM3.144,10.968 C3.473,10.968 3.741,11.229 3.741,11.551 L3.741,20.833 L8.518,20.833 L8.518,15.766 C8.518,14.158 9.857,12.850 11.504,12.850 C13.150,12.850 14.490,14.158 14.490,15.766 L14.490,20.833 L19.267,20.833 L19.267,11.551 C19.267,11.229 19.534,10.968 19.864,10.968 C20.194,10.968 20.461,11.229 20.461,11.551 L20.461,21.416 C20.461,21.738 20.194,21.999 19.864,21.999 L13.893,21.999 C13.578,21.999 13.321,21.762 13.298,21.461 C13.296,21.448 13.295,21.433 13.295,21.416 L13.295,15.766 C13.295,14.801 12.492,14.017 11.504,14.017 C10.516,14.017 9.712,14.801 9.712,15.766 L9.712,21.416 C9.712,21.433 9.711,21.448 9.710,21.461 C9.686,21.762 9.429,21.999 9.115,21.999 L3.144,21.999 C2.814,21.999 2.546,21.738 2.546,21.416 L2.546,11.551 C2.546,11.229 2.814,10.968 3.144,10.968 Z"/>
<path fill-rule="evenodd"  fill="rgb(119, 119, 119)"
 d="M496.359,11.172 L491.847,11.172 L491.847,6.660 C491.847,6.455 491.568,6.009 491.010,6.009 C490.452,6.009 490.172,6.455 490.172,6.660 L490.172,11.172 L485.661,11.172 C485.455,11.172 485.010,11.451 485.010,12.009 C485.010,12.567 485.455,12.846 485.661,12.846 L490.173,12.846 L490.173,17.358 C490.173,17.563 490.452,18.009 491.010,18.009 C491.568,18.009 491.847,17.563 491.847,17.358 L491.847,12.846 L496.359,12.846 C496.564,12.846 497.010,12.567 497.010,12.009 C497.010,11.451 496.564,11.172 496.359,11.172 Z"/>
<path fill-rule="evenodd"  fill="rgb(119, 119, 119)"
 d="M525.094,18.499 L515.906,18.499 C515.131,18.499 514.500,17.868 514.500,17.093 L514.500,13.835 L515.437,13.835 L515.437,17.093 C515.437,17.352 515.648,17.562 515.906,17.562 L525.094,17.562 C525.352,17.562 525.562,17.352 525.562,17.093 L525.562,13.835 L526.500,13.835 L526.500,17.093 C526.500,17.868 525.869,18.499 525.094,18.499 ZM517.587,12.687 L518.250,12.024 L520.031,13.805 L520.031,6.499 L520.969,6.499 L520.969,13.805 L522.750,12.024 L523.413,12.687 L520.500,15.599 L517.587,12.687 Z"/>
<path fill-rule="evenodd"  fill="rgb(119, 119, 119)"
 d="M553.473,14.209 C552.790,14.209 552.181,14.538 551.791,15.046 L548.527,13.205 C548.604,12.982 548.646,12.743 548.646,12.497 C548.646,12.248 548.604,12.011 548.525,11.787 L551.786,9.948 C552.173,10.459 552.785,10.790 553.471,10.790 C554.640,10.790 555.595,9.828 555.595,8.645 C555.595,7.461 554.643,6.499 553.471,6.499 C552.299,6.499 551.347,7.461 551.347,8.645 C551.347,8.894 551.389,9.133 551.468,9.355 L548.209,11.194 C547.822,10.680 547.210,10.351 546.524,10.351 C545.355,10.351 544.400,11.313 544.400,12.497 C544.400,13.680 545.355,14.642 546.526,14.642 C547.212,14.642 547.824,14.311 548.214,13.798 L551.475,15.639 C551.396,15.863 551.352,16.105 551.352,16.354 C551.352,17.535 552.304,18.499 553.476,18.499 C554.648,18.499 555.600,17.538 555.600,16.354 C555.600,15.170 554.645,14.209 553.473,14.209 ZM553.473,7.175 C554.278,7.175 554.931,7.835 554.931,8.647 C554.931,9.459 554.278,10.120 553.473,10.120 C552.669,10.120 552.015,9.459 552.015,8.647 C552.015,7.835 552.672,7.175 553.473,7.175 ZM546.526,13.969 C545.722,13.969 545.068,13.309 545.068,12.497 C545.068,11.684 545.722,11.024 546.526,11.024 C547.331,11.024 547.984,11.684 547.984,12.497 C547.984,13.309 547.328,13.969 546.526,13.969 ZM553.473,17.824 C552.669,17.824 552.015,17.164 552.015,16.352 C552.015,15.539 552.669,14.879 553.473,14.879 C554.278,14.879 554.931,15.539 554.931,16.352 C554.931,17.164 554.278,17.824 553.473,17.824 Z"/>
<path fill-rule="evenodd"  fill="rgb(255, 255, 255)"
 d="M587.601,12.050 C587.572,12.053 587.547,12.057 587.518,12.057 C587.284,12.057 587.079,11.892 587.040,11.655 C586.756,9.983 585.965,8.458 584.751,7.244 C583.536,6.035 582.009,5.242 580.334,4.959 C580.068,4.912 579.892,4.664 579.936,4.399 C579.982,4.137 580.230,3.957 580.492,4.004 C582.368,4.323 584.075,5.206 585.434,6.563 C586.792,7.919 587.676,9.624 587.996,11.497 C588.042,11.759 587.863,12.010 587.601,12.050 ZM580.360,7.087 C581.499,7.280 582.537,7.819 583.360,8.641 C584.183,9.462 584.722,10.500 584.916,11.637 C584.959,11.902 584.783,12.154 584.517,12.197 C584.489,12.201 584.463,12.204 584.435,12.204 C584.201,12.204 583.996,12.039 583.957,11.802 C583.795,10.862 583.353,10.008 582.670,9.326 C581.987,8.644 581.132,8.199 580.191,8.041 C579.925,7.998 579.752,7.743 579.799,7.481 C579.846,7.219 580.094,7.043 580.360,7.087 ZM577.140,10.284 C576.874,10.553 576.601,10.833 576.306,11.102 C576.525,11.587 576.827,12.064 577.276,12.631 C578.203,13.769 579.170,14.648 580.234,15.323 C580.338,15.387 580.460,15.448 580.590,15.513 C580.679,15.559 580.773,15.606 580.866,15.656 L582.002,14.526 C582.365,14.163 582.789,13.973 583.231,13.973 C583.676,13.973 584.097,14.167 584.445,14.529 L586.418,16.507 C586.781,16.866 586.972,17.293 586.972,17.738 C586.972,18.179 586.785,18.610 586.429,18.980 C586.274,19.141 586.116,19.295 585.962,19.442 C585.735,19.661 585.520,19.866 585.333,20.092 C585.329,20.099 585.322,20.103 585.319,20.110 C584.772,20.702 584.075,21.000 583.245,21.000 C583.173,21.000 583.094,20.996 583.019,20.993 C581.786,20.914 580.683,20.451 579.856,20.060 C577.693,19.015 575.799,17.533 574.225,15.656 C572.928,14.099 572.058,12.645 571.476,11.077 C571.239,10.438 570.930,9.462 571.016,8.414 C571.074,7.765 571.336,7.205 571.796,6.745 L573.018,5.515 C573.021,5.511 573.021,5.511 573.025,5.508 C573.384,5.163 573.808,4.980 574.247,4.980 C574.685,4.980 575.102,5.163 575.451,5.508 C575.684,5.723 575.911,5.953 576.126,6.175 C576.234,6.290 576.349,6.405 576.461,6.516 L577.441,7.496 C578.196,8.250 578.196,9.225 577.441,9.979 C577.341,10.079 577.240,10.184 577.140,10.284 ZM576.759,8.181 L575.778,7.201 C575.663,7.083 575.548,6.968 575.436,6.853 C575.217,6.627 575.009,6.416 574.790,6.211 C574.786,6.207 574.782,6.204 574.779,6.200 C574.664,6.085 574.480,5.949 574.254,5.949 C574.071,5.949 573.884,6.039 573.708,6.204 L572.482,7.427 C572.184,7.725 572.022,8.073 571.987,8.493 C571.933,9.150 572.055,9.846 572.389,10.740 C572.932,12.204 573.751,13.568 574.976,15.043 C576.461,16.812 578.246,18.208 580.280,19.191 C581.024,19.546 582.016,19.963 583.083,20.031 C583.137,20.034 583.195,20.034 583.249,20.034 C583.809,20.034 584.237,19.851 584.600,19.464 C584.823,19.202 585.060,18.969 585.293,18.746 C585.448,18.595 585.592,18.459 585.732,18.308 C586.098,17.928 586.098,17.551 585.728,17.185 L583.748,15.208 C583.745,15.204 583.745,15.204 583.741,15.201 C583.630,15.078 583.446,14.939 583.224,14.939 C582.997,14.939 582.803,15.086 582.681,15.208 L581.452,16.435 C581.391,16.496 581.204,16.682 580.906,16.682 C580.787,16.682 580.672,16.654 580.550,16.593 C580.536,16.586 580.521,16.575 580.507,16.568 C580.403,16.503 580.280,16.442 580.151,16.378 C580.007,16.306 579.856,16.230 579.709,16.137 C578.556,15.409 577.510,14.458 576.518,13.238 L576.514,13.234 C575.968,12.541 575.609,11.960 575.354,11.343 C575.350,11.332 575.347,11.321 575.343,11.310 C575.278,11.106 575.221,10.804 575.530,10.496 C575.533,10.489 575.541,10.485 575.548,10.478 C575.860,10.198 576.148,9.911 576.450,9.602 C576.554,9.502 576.655,9.398 576.759,9.293 C577.140,8.913 577.140,8.561 576.759,8.181 Z"/>
<path fill-rule="evenodd"  fill="rgb(255, 255, 255)"
 d="M18.919,49.001 L6.079,49.001 C4.933,49.001 4.001,48.064 4.001,46.912 L4.001,38.090 C4.001,36.937 4.933,36.001 6.079,36.001 L18.922,36.001 C20.069,36.001 21.001,36.941 20.997,38.093 L20.997,46.912 C20.997,48.064 20.065,49.001 18.919,49.001 ZM20.048,46.912 L20.048,38.093 C20.048,37.468 19.541,36.959 18.919,36.959 L6.079,36.959 C5.457,36.959 4.950,37.468 4.950,38.093 L4.950,46.912 C4.950,47.537 5.457,48.046 6.079,48.046 L18.922,48.046 C19.545,48.046 20.051,47.537 20.051,46.912 L20.048,46.912 ZM18.912,47.050 C18.817,47.149 18.694,47.198 18.567,47.198 C18.451,47.198 18.332,47.156 18.240,47.067 L14.013,43.031 L12.828,44.098 C12.740,44.180 12.624,44.222 12.511,44.222 C12.399,44.222 12.286,44.183 12.195,44.102 L11.041,43.066 L6.790,47.064 C6.698,47.149 6.582,47.191 6.466,47.191 C6.339,47.191 6.213,47.138 6.118,47.039 C5.938,46.845 5.949,46.544 6.139,46.364 L10.327,42.423 L6.121,38.645 C5.924,38.468 5.907,38.168 6.083,37.970 C6.259,37.772 6.557,37.754 6.754,37.931 L11.305,42.023 C11.333,42.045 11.358,42.066 11.382,42.091 C11.382,42.094 11.386,42.098 11.389,42.101 L12.508,43.105 L18.240,37.934 C18.437,37.757 18.736,37.775 18.912,37.970 C19.088,38.168 19.070,38.468 18.877,38.645 L14.720,42.391 L18.894,46.375 C19.084,46.555 19.091,46.859 18.912,47.050 Z"/>
<path fill-rule="evenodd"  fill="rgb(255, 255, 255)"
 d="M47.154,42.507 L42.512,49.772 C42.423,49.912 42.262,49.999 42.087,50.000 C42.086,50.000 42.085,50.000 42.083,50.000 C41.910,50.000 41.750,49.916 41.658,49.778 L36.896,42.583 C36.310,41.695 36.000,40.673 36.000,39.625 C36.000,36.523 38.692,34.000 42.000,34.000 C45.308,34.000 48.000,36.523 48.000,39.625 C48.000,40.641 47.707,41.638 47.154,42.507 ZM42.000,34.931 C39.243,34.931 36.993,37.040 36.993,39.625 C36.993,40.498 37.258,41.350 37.745,42.089 L42.076,48.631 L46.295,42.025 C46.756,41.302 47.003,40.472 47.003,39.625 C47.003,37.040 44.757,34.931 42.000,34.931 ZM42.000,42.437 C40.324,42.437 39.000,41.166 39.000,39.625 C39.000,38.074 40.346,36.812 42.000,36.812 C43.654,36.812 45.000,38.074 45.000,39.625 C45.000,41.149 43.697,42.437 42.000,42.437 ZM42.000,37.744 C40.897,37.744 39.993,38.591 39.993,39.625 C39.993,40.661 40.891,41.506 42.000,41.506 C43.126,41.506 44.003,40.646 44.003,39.625 C44.003,38.591 43.103,37.744 42.000,37.744 Z"/>
<path fill-rule="evenodd"  fill="rgb(255, 255, 255)"
 d="M177.375,52.000 L158.625,52.000 C158.280,52.000 158.000,51.720 158.000,51.375 L158.000,37.625 C158.000,37.280 158.280,37.000 158.625,37.000 L160.500,37.000 L160.500,35.125 C160.500,34.780 160.780,34.500 161.125,34.500 L163.000,34.500 L163.000,32.625 C163.000,32.280 163.280,32.000 163.625,32.000 L172.375,32.000 C172.720,32.000 173.000,32.280 173.000,32.625 L173.000,34.500 L174.875,34.500 C175.220,34.500 175.500,34.780 175.500,35.125 L175.500,37.000 L177.375,37.000 C177.720,37.000 178.000,37.280 178.000,37.625 L178.000,51.375 C178.000,51.720 177.720,52.000 177.375,52.000 ZM171.750,33.250 L164.250,33.250 L164.250,34.500 L171.750,34.500 L171.750,33.250 ZM174.250,35.750 L161.750,35.750 L161.750,37.000 L174.250,37.000 L174.250,35.750 ZM176.750,38.250 L159.250,38.250 L159.250,50.750 L176.750,50.750 L176.750,38.250 ZM166.750,45.750 C167.211,45.750 167.632,45.846 168.000,46.002 L168.000,40.125 C168.000,40.104 168.010,40.086 168.012,40.066 C168.014,40.047 168.007,40.030 168.011,40.010 C168.015,39.987 168.029,39.971 168.035,39.950 C168.049,39.907 168.064,39.867 168.085,39.829 C168.102,39.796 168.122,39.767 168.145,39.739 C168.174,39.704 168.204,39.674 168.239,39.645 C168.265,39.624 168.292,39.605 168.324,39.589 C168.362,39.566 168.401,39.550 168.444,39.536 C168.481,39.525 168.517,39.519 168.556,39.514 C168.580,39.511 168.601,39.500 168.625,39.500 C168.646,39.500 168.664,39.510 168.684,39.511 C168.702,39.512 168.721,39.506 168.740,39.510 C169.781,39.705 171.750,40.591 171.750,42.546 C171.750,42.891 171.470,43.171 171.125,43.171 C170.780,43.171 170.500,42.891 170.500,42.546 C170.500,41.710 169.816,41.239 169.250,40.987 L169.250,47.625 C169.250,48.676 168.151,49.500 166.750,49.500 C165.349,49.500 164.250,48.676 164.250,47.625 C164.250,46.574 165.349,45.750 166.750,45.750 ZM166.750,48.250 C167.502,48.250 168.000,47.874 168.000,47.625 C168.000,47.376 167.502,47.000 166.750,47.000 C165.997,47.000 165.500,47.376 165.500,47.625 C165.500,47.874 165.997,48.250 166.750,48.250 Z"/>
<path fill-rule="evenodd"  fill="rgb(255, 255, 255)"
 d="M209.999,37.920 C209.999,37.929 209.999,37.939 209.998,37.948 C209.997,37.954 209.997,37.960 209.996,37.966 C209.995,37.974 209.994,37.982 209.992,37.990 C209.991,37.997 209.990,38.003 209.988,38.009 C209.987,38.017 209.985,38.024 209.983,38.031 C209.981,38.038 209.979,38.044 209.977,38.050 C209.975,38.058 209.972,38.065 209.970,38.072 C209.967,38.078 209.965,38.084 209.963,38.090 C209.959,38.097 209.956,38.104 209.952,38.111 C209.950,38.117 209.947,38.122 209.944,38.128 C209.940,38.135 209.935,38.143 209.931,38.150 C209.928,38.155 209.925,38.159 209.922,38.164 C209.915,38.175 209.907,38.186 209.898,38.197 L209.897,38.198 C209.897,38.198 209.897,38.198 209.897,38.198 L198.847,51.834 C198.846,51.835 198.845,51.836 198.844,51.837 C198.835,51.849 198.825,51.860 198.814,51.870 C198.813,51.871 198.811,51.873 198.810,51.874 C198.801,51.883 198.791,51.892 198.781,51.900 C198.777,51.902 198.774,51.905 198.771,51.908 C198.760,51.916 198.749,51.923 198.738,51.931 C198.737,51.931 198.736,51.932 198.735,51.933 C198.722,51.941 198.709,51.948 198.696,51.954 C198.693,51.956 198.689,51.957 198.686,51.959 C198.675,51.964 198.664,51.969 198.652,51.973 C198.649,51.974 198.647,51.975 198.644,51.976 C198.630,51.981 198.616,51.985 198.601,51.988 C198.598,51.989 198.596,51.989 198.593,51.990 C198.581,51.992 198.569,51.994 198.557,51.996 C198.553,51.996 198.549,51.997 198.545,51.997 C198.530,51.999 198.515,52.000 198.500,52.000 C198.485,52.000 198.470,51.999 198.455,51.997 C198.451,51.997 198.447,51.996 198.443,51.996 C198.431,51.994 198.419,51.992 198.407,51.990 C198.404,51.989 198.401,51.989 198.398,51.988 C198.384,51.985 198.370,51.981 198.356,51.976 C198.353,51.975 198.350,51.974 198.347,51.973 C198.336,51.969 198.325,51.964 198.314,51.959 C198.310,51.957 198.307,51.956 198.304,51.954 C198.290,51.948 198.277,51.941 198.265,51.933 C198.264,51.932 198.263,51.931 198.262,51.931 C198.250,51.923 198.239,51.916 198.229,51.908 C198.225,51.905 198.222,51.902 198.219,51.900 C198.209,51.892 198.199,51.883 198.190,51.874 C198.188,51.873 198.187,51.871 198.186,51.870 C198.175,51.860 198.165,51.849 198.155,51.837 C198.154,51.836 198.153,51.835 198.152,51.834 L187.103,38.198 C187.102,38.198 187.102,38.198 187.102,38.198 L187.102,38.197 C187.093,38.186 187.085,38.175 187.077,38.164 C187.074,38.159 187.072,38.155 187.069,38.150 C187.064,38.143 187.059,38.135 187.055,38.128 C187.052,38.122 187.050,38.117 187.047,38.111 C187.044,38.104 187.040,38.097 187.037,38.090 C187.035,38.084 187.032,38.078 187.030,38.072 C187.027,38.064 187.025,38.057 187.022,38.050 C187.020,38.044 187.019,38.038 187.017,38.031 C187.015,38.024 187.013,38.017 187.011,38.009 C187.010,38.003 187.009,37.997 187.007,37.990 C187.006,37.982 187.005,37.974 187.004,37.966 C187.003,37.960 187.002,37.954 187.002,37.948 C187.001,37.939 187.001,37.930 187.000,37.920 C187.000,37.916 187.000,37.913 187.000,37.909 C187.000,37.908 187.000,37.907 187.000,37.905 C187.000,37.893 187.001,37.881 187.002,37.869 C187.002,37.867 187.002,37.864 187.002,37.862 C187.004,37.848 187.006,37.834 187.009,37.820 C187.010,37.815 187.011,37.809 187.013,37.803 C187.015,37.795 187.016,37.787 187.019,37.780 C187.021,37.773 187.023,37.767 187.025,37.761 C187.027,37.754 187.030,37.747 187.032,37.740 C187.035,37.733 187.038,37.727 187.040,37.721 C187.043,37.714 187.047,37.708 187.050,37.701 C187.053,37.695 187.056,37.689 187.059,37.684 C187.063,37.677 187.067,37.671 187.071,37.664 C187.074,37.659 187.078,37.653 187.082,37.648 C187.086,37.642 187.090,37.636 187.095,37.630 C187.099,37.625 187.103,37.619 187.107,37.614 C187.109,37.612 187.111,37.610 187.112,37.608 L191.874,32.153 C191.875,32.152 191.877,32.151 191.878,32.150 C191.885,32.142 191.893,32.134 191.901,32.126 C191.904,32.123 191.907,32.120 191.910,32.117 C191.919,32.108 191.929,32.100 191.940,32.092 C191.942,32.091 191.943,32.089 191.945,32.088 C191.958,32.079 191.970,32.070 191.984,32.062 C191.984,32.062 191.984,32.062 191.984,32.062 C192.010,32.047 192.039,32.033 192.069,32.023 C192.069,32.023 192.069,32.023 192.069,32.023 C192.074,32.022 192.079,32.020 192.084,32.019 C192.094,32.016 192.104,32.013 192.115,32.011 C192.119,32.010 192.123,32.009 192.127,32.008 C192.138,32.006 192.150,32.004 192.161,32.003 C192.165,32.002 192.169,32.002 192.173,32.002 C192.184,32.001 192.196,32.000 192.208,32.000 C192.209,32.000 192.210,32.000 192.211,32.000 L204.789,32.000 C204.790,32.000 204.791,32.000 204.792,32.000 C204.804,32.000 204.816,32.001 204.828,32.002 C204.831,32.002 204.835,32.002 204.839,32.003 C204.850,32.004 204.862,32.006 204.874,32.009 C204.878,32.009 204.881,32.010 204.885,32.010 C204.896,32.013 204.906,32.016 204.917,32.019 C204.921,32.021 204.926,32.022 204.930,32.023 C204.931,32.023 204.931,32.023 204.931,32.023 C204.961,32.033 204.989,32.046 205.016,32.062 C205.016,32.062 205.016,32.062 205.016,32.062 C205.029,32.070 205.042,32.079 205.054,32.088 C205.056,32.089 205.058,32.091 205.060,32.092 C205.071,32.100 205.080,32.108 205.090,32.117 C205.093,32.120 205.096,32.123 205.099,32.126 C205.107,32.134 205.115,32.142 205.122,32.150 C205.123,32.151 205.125,32.152 205.126,32.153 L209.887,37.608 C209.889,37.610 209.891,37.612 209.892,37.614 C209.897,37.619 209.901,37.624 209.905,37.630 C209.909,37.636 209.914,37.642 209.918,37.648 C209.922,37.653 209.925,37.659 209.929,37.664 C209.933,37.671 209.937,37.677 209.941,37.684 C209.944,37.689 209.947,37.695 209.950,37.701 C209.953,37.708 209.956,37.714 209.960,37.721 C209.962,37.727 209.965,37.733 209.967,37.740 C209.970,37.747 209.973,37.754 209.975,37.761 C209.977,37.767 209.979,37.773 209.981,37.780 C209.983,37.787 209.985,37.795 209.987,37.803 C209.989,37.809 209.990,37.814 209.991,37.820 C209.994,37.834 209.996,37.848 209.997,37.862 C209.998,37.864 209.998,37.867 209.998,37.869 C209.999,37.881 210.000,37.893 210.000,37.905 C210.000,37.907 210.000,37.908 210.000,37.909 C210.000,37.913 209.999,37.916 209.999,37.920 ZM197.304,49.353 L193.684,38.364 L188.398,38.364 L197.304,49.353 ZM192.031,33.347 L188.445,37.454 L193.384,37.454 L192.031,33.347 ZM192.834,32.909 L194.179,36.991 L197.541,32.909 L192.834,32.909 ZM194.967,37.454 L196.703,37.454 C196.951,37.454 197.152,37.658 197.152,37.909 C197.152,38.160 196.951,38.364 196.703,38.364 L194.631,38.364 L198.500,50.108 L202.369,38.364 L200.255,38.364 C200.006,38.364 199.805,38.160 199.805,37.909 C199.805,37.658 200.006,37.454 200.255,37.454 L202.033,37.454 L198.500,33.164 L194.967,37.454 ZM199.459,32.909 L202.821,36.991 L204.166,32.909 L199.459,32.909 ZM204.968,33.347 L203.615,37.454 L208.554,37.454 L204.968,33.347 ZM203.316,38.364 L199.696,49.353 L208.601,38.364 L203.316,38.364 ZM198.500,38.364 C198.252,38.364 198.051,38.160 198.051,37.909 C198.051,37.658 198.252,37.454 198.500,37.454 C198.748,37.454 198.949,37.658 198.949,37.909 C198.949,38.160 198.748,38.364 198.500,38.364 Z"/>
<path fill-rule="evenodd"  fill="rgb(255, 255, 255)"
 d="M238.004,42.095 C238.004,39.400 236.964,36.864 235.076,34.959 C233.188,33.054 230.675,32.004 228.004,32.004 C225.333,32.004 222.820,33.054 220.932,34.959 C219.044,36.864 218.004,39.400 218.004,42.095 L218.004,46.873 C218.004,49.572 220.183,51.771 222.859,51.771 C223.179,51.771 223.436,51.512 223.436,51.188 L223.436,42.561 C223.436,42.238 223.179,41.978 222.859,41.978 C221.377,41.978 220.050,42.648 219.160,43.706 L219.160,42.095 C219.160,37.175 223.128,33.171 228.004,33.171 C232.880,33.171 236.848,37.175 236.848,42.095 C236.848,42.134 236.852,42.173 236.861,42.212 C236.852,42.250 236.848,42.289 236.848,42.328 L236.848,43.939 C235.958,42.881 234.631,42.212 233.150,42.212 C232.828,42.212 232.572,42.471 232.572,42.795 L232.572,51.421 C232.572,51.745 232.828,52.004 233.150,52.004 C235.825,52.004 238.004,49.806 238.004,47.106 L238.004,42.328 C238.004,42.289 238.000,42.250 237.991,42.212 C238.000,42.173 238.004,42.134 238.004,42.095 ZM222.276,43.188 L222.276,50.557 C220.512,50.276 219.155,48.730 219.155,46.873 C219.160,45.015 220.512,43.469 222.276,43.188 ZM233.732,50.790 L233.732,43.421 C235.495,43.702 236.852,45.248 236.852,47.106 C236.848,48.968 235.495,50.510 233.732,50.790 Z"/>
<path fill-rule="evenodd"  fill="rgb(255, 255, 255)"
 d="M264.847,49.579 C264.569,49.803 264.163,49.757 263.941,49.475 C263.719,49.193 263.765,48.783 264.044,48.558 C266.374,46.679 267.711,43.872 267.711,40.858 C267.711,37.844 266.374,35.038 264.044,33.158 C263.765,32.933 263.719,32.523 263.941,32.241 C264.163,31.959 264.569,31.913 264.847,32.138 C267.486,34.266 269.000,37.445 269.000,40.858 C269.000,44.272 267.486,47.450 264.847,49.579 ZM262.698,46.857 C262.420,47.081 262.014,47.035 261.792,46.752 C261.571,46.470 261.617,46.060 261.896,45.836 C263.407,44.619 264.273,42.805 264.273,40.858 C264.273,38.911 263.407,37.097 261.896,35.881 C261.617,35.656 261.571,35.246 261.792,34.964 C262.014,34.682 262.419,34.635 262.698,34.860 C264.518,36.325 265.562,38.511 265.562,40.858 C265.562,43.205 264.518,45.391 262.698,46.857 ZM258.644,44.063 L258.644,51.348 C258.644,51.708 258.356,52.000 258.000,52.000 C257.644,52.000 257.355,51.708 257.355,51.348 L257.355,44.063 C255.886,43.760 254.777,42.442 254.777,40.867 C254.777,39.068 256.223,37.605 258.000,37.605 C259.777,37.605 261.223,39.068 261.223,40.867 C261.223,42.442 260.114,43.760 258.644,44.063 ZM258.000,38.910 C256.934,38.910 256.066,39.788 256.066,40.867 C256.066,41.946 256.934,42.824 258.000,42.824 C259.066,42.824 259.934,41.946 259.934,40.867 C259.934,39.788 259.066,38.910 258.000,38.910 ZM254.207,46.752 C253.986,47.034 253.580,47.081 253.302,46.857 C251.481,45.391 250.437,43.205 250.437,40.858 C250.437,38.511 251.481,36.325 253.302,34.859 C253.580,34.635 253.986,34.682 254.207,34.964 C254.429,35.246 254.383,35.656 254.104,35.881 C252.593,37.097 251.726,38.911 251.726,40.858 C251.726,42.805 252.593,44.619 254.104,45.836 C254.383,46.060 254.429,46.470 254.207,46.752 ZM248.289,40.858 C248.289,43.872 249.626,46.679 251.956,48.559 C252.235,48.783 252.281,49.194 252.059,49.475 C251.837,49.757 251.431,49.803 251.153,49.579 C248.514,47.450 247.000,44.272 247.000,40.858 C247.000,37.445 248.514,34.266 251.153,32.138 C251.431,31.913 251.837,31.959 252.059,32.241 C252.280,32.523 252.235,32.933 251.956,33.158 C249.626,35.037 248.289,37.844 248.289,40.858 Z"/>
<path fill-rule="evenodd"  fill="rgb(255, 255, 255)"
 d="M295.656,52.000 L280.344,52.000 C279.051,52.000 278.000,50.949 278.000,49.656 L278.000,44.227 L279.562,44.227 L279.562,49.656 C279.562,50.087 279.913,50.437 280.344,50.437 L295.656,50.437 C296.087,50.437 296.437,50.087 296.437,49.656 L296.437,44.227 L298.000,44.227 L298.000,49.656 C298.000,50.949 296.949,52.000 295.656,52.000 ZM283.145,42.312 L284.250,41.208 L287.219,44.176 L287.219,32.000 L288.781,32.000 L288.781,44.176 L291.750,41.208 L292.855,42.312 L288.000,47.167 L283.145,42.312 Z"/>
<path fill-rule="evenodd"  fill="rgb(255, 255, 255)"
 d="M325.663,37.237 C325.612,36.892 325.320,36.651 324.976,36.651 L321.024,36.651 L321.024,35.032 C321.024,33.361 319.667,32.000 318.000,32.000 C316.333,32.000 314.976,33.361 314.976,35.032 L314.976,36.651 L311.024,36.651 C310.680,36.651 310.388,36.892 310.337,37.237 L308.034,51.190 C308.000,51.397 308.051,51.604 308.189,51.759 C308.326,51.914 308.515,52.000 308.722,52.000 L327.278,52.000 C327.278,52.000 327.278,52.000 327.295,52.000 C327.691,52.000 328.000,51.690 328.000,51.294 C328.000,51.208 327.983,51.139 327.966,51.070 L325.663,37.237 ZM316.385,35.032 C316.385,34.136 317.106,33.413 318.000,33.413 C318.893,33.413 319.615,34.136 319.615,35.032 L319.615,36.651 L316.385,36.651 L316.385,35.032 ZM309.546,50.605 L311.625,38.064 L314.976,38.064 L314.976,42.009 C314.976,42.405 315.285,42.715 315.680,42.715 C316.075,42.715 316.385,42.405 316.385,42.009 L316.385,38.064 L319.615,38.064 L319.615,42.009 C319.615,42.405 319.924,42.715 320.320,42.715 C320.715,42.715 321.024,42.405 321.024,42.009 L321.024,38.064 L324.375,38.064 L326.454,50.605 L309.546,50.605 Z"/>
<path fill-rule="evenodd"  fill="rgb(255, 255, 255)"
 d="M356.614,35.670 C355.676,34.593 354.376,34.000 352.953,34.000 C350.951,34.000 349.684,35.211 348.973,36.227 C348.789,36.490 348.632,36.755 348.500,37.003 C348.368,36.755 348.211,36.490 348.027,36.227 C347.316,35.211 346.049,34.000 344.047,34.000 C342.623,34.000 341.323,34.593 340.386,35.670 C339.492,36.697 339.000,38.073 339.000,39.544 C339.000,41.145 339.617,42.634 340.942,44.231 C342.127,45.657 343.831,47.128 345.804,48.831 C346.539,49.465 347.300,50.122 348.109,50.839 L348.133,50.860 C348.238,50.954 348.369,51.000 348.500,51.000 C348.631,51.000 348.762,50.953 348.867,50.860 L348.891,50.839 C349.700,50.122 350.461,49.465 351.196,48.831 C353.169,47.128 354.873,45.657 356.057,44.231 C357.383,42.634 358.000,41.145 358.000,39.544 C358.000,38.073 357.508,36.697 356.614,35.670 ZM350.474,47.973 C349.840,48.520 349.188,49.083 348.500,49.688 C347.812,49.083 347.160,48.520 346.526,47.973 C342.664,44.640 340.113,42.438 340.113,39.544 C340.113,38.348 340.507,37.237 341.221,36.415 C341.944,35.585 342.948,35.127 344.047,35.127 C345.573,35.127 346.560,36.080 347.119,36.879 C347.620,37.595 347.881,38.317 347.971,38.595 C348.045,38.827 348.259,38.984 348.500,38.984 C348.741,38.984 348.955,38.827 349.029,38.595 C349.118,38.317 349.380,37.595 349.881,36.879 C350.440,36.080 351.427,35.127 352.953,35.127 C354.052,35.127 355.056,35.585 355.778,36.415 C356.493,37.237 356.887,38.348 356.887,39.544 C356.887,42.438 354.336,44.640 350.474,47.973 Z"/>
<path fill-rule="evenodd"  fill="rgb(255, 255, 255)"
 d="M379.974,42.734 L382.471,44.733 L381.638,45.918 L378.587,43.475 L378.587,35.331 L379.974,35.331 L379.974,42.734 ZM387.724,47.007 C385.131,51.782 379.402,53.408 374.928,50.640 L375.625,49.360 C376.406,49.843 377.257,50.180 378.144,50.359 C382.468,51.229 386.634,48.192 387.449,43.577 C388.264,38.961 385.419,34.514 381.095,33.644 C376.771,32.774 372.605,35.810 371.790,40.426 L373.935,38.139 L374.916,39.186 L370.958,43.411 L367.000,39.186 L367.981,38.139 L370.356,40.675 C370.977,35.714 374.939,32.008 379.627,32.000 C381.276,32.000 382.895,32.466 384.321,33.348 C388.794,36.117 390.318,42.232 387.724,47.007 ZM372.891,46.554 L371.721,47.348 C371.452,46.898 371.218,46.426 371.021,45.935 L372.296,45.351 C372.464,45.769 372.663,46.171 372.891,46.554 ZM374.578,48.583 L373.699,49.730 C373.314,49.392 372.954,49.023 372.622,48.625 L373.663,47.642 C373.944,47.981 374.250,48.295 374.578,48.583 Z"/>
<path fill-rule="evenodd"  fill="rgb(255, 255, 255)"
 d="M417.343,34.572 C417.120,34.435 416.831,34.421 416.595,34.545 L411.487,37.172 C411.079,37.227 410.777,37.585 410.791,38.011 L411.040,46.071 C410.593,45.879 410.095,45.769 409.543,45.769 C409.044,45.769 408.545,45.851 408.059,46.016 C406.037,46.690 404.829,48.479 405.314,50.088 C405.669,51.243 406.838,52.000 408.309,52.000 C408.808,52.000 409.306,51.917 409.792,51.752 C411.618,51.147 412.773,49.648 412.642,48.190 C412.668,48.107 412.681,48.011 412.681,47.901 L412.537,43.087 L417.514,40.776 C417.816,40.638 418.000,40.322 417.987,39.978 L417.751,35.246 C417.724,34.957 417.580,34.710 417.343,34.572 ZM409.320,50.171 C408.978,50.281 408.637,50.336 408.309,50.336 C407.547,50.336 406.943,50.033 406.812,49.579 C406.628,48.974 407.284,47.997 408.532,47.585 C408.873,47.475 409.215,47.419 409.543,47.419 C410.305,47.419 410.909,47.722 411.040,48.176 C411.224,48.795 410.567,49.758 409.320,50.171 ZM412.471,41.298 L412.393,38.547 L416.227,36.580 L416.372,39.497 L412.471,41.298 ZM411.789,33.651 L398.788,33.651 C398.354,33.651 398.000,33.279 398.000,32.825 C398.000,32.371 398.354,32.000 398.788,32.000 L411.789,32.000 C412.222,32.000 412.576,32.371 412.576,32.825 C412.576,33.279 412.222,33.651 411.789,33.651 ZM407.980,37.640 C407.980,38.094 407.626,38.465 407.192,38.465 L398.788,38.465 C398.354,38.465 398.000,38.093 398.000,37.640 C398.000,37.186 398.354,36.814 398.788,36.814 L407.192,36.814 C407.626,36.814 407.980,37.186 407.980,37.640 ZM407.980,42.316 C407.980,42.770 407.626,43.142 407.192,43.142 L398.788,43.142 C398.354,43.142 398.000,42.770 398.000,42.316 C398.000,41.862 398.354,41.491 398.788,41.491 L407.192,41.491 C407.626,41.491 407.980,41.862 407.980,42.316 Z"/>
<path fill-rule="evenodd"  fill="rgb(255, 255, 255)"
 d="M444.200,46.143 L444.200,51.000 L441.800,51.000 L441.800,46.143 L437.000,46.143 L437.000,43.714 L441.800,43.714 L441.800,38.857 L444.200,38.857 L444.200,43.714 L449.000,43.714 L449.000,46.143 L444.200,46.143 ZM425.000,38.857 L439.400,38.857 L439.400,41.286 L425.000,41.286 L425.000,38.857 ZM425.000,34.000 L439.400,34.000 L439.400,36.429 L425.000,36.429 L425.000,34.000 ZM434.600,46.143 L425.000,46.143 L425.000,43.714 L434.600,43.714 L434.600,46.143 Z"/>
<path fill-rule="evenodd"  fill="rgb(255, 255, 255)"
 d="M118.312,49.286 L114.875,49.286 L114.875,51.321 C114.875,51.696 114.567,52.000 114.187,52.000 L101.812,52.000 C101.433,52.000 101.125,51.696 101.125,51.321 L101.125,49.286 L97.687,49.286 C97.308,49.286 97.000,48.982 97.000,48.607 L97.000,36.393 C97.000,36.018 97.308,35.714 97.687,35.714 L101.125,35.714 L101.125,33.679 C101.125,33.304 101.433,33.000 101.812,33.000 L114.187,33.000 C114.567,33.000 114.875,33.304 114.875,33.679 L114.875,35.714 L118.312,35.714 C118.692,35.714 119.000,36.018 119.000,36.393 L119.000,48.607 C119.000,48.982 118.692,49.286 118.312,49.286 ZM101.125,37.071 L98.375,37.071 L98.375,47.928 L101.125,47.928 L101.125,37.071 ZM113.500,34.357 L102.500,34.357 L102.500,50.643 L113.500,50.643 L113.500,34.357 ZM117.625,37.071 L114.875,37.071 L114.875,47.928 L117.625,47.928 L117.625,37.071 ZM106.625,43.857 C107.132,43.857 107.596,43.962 108.000,44.131 L108.000,37.750 C108.000,37.548 108.092,37.356 108.249,37.227 C108.405,37.098 108.613,37.044 108.815,37.084 C109.959,37.295 112.125,38.257 112.125,40.379 C112.125,40.753 111.817,41.057 111.437,41.057 C111.058,41.057 110.750,40.753 110.750,40.379 C110.750,39.472 109.998,38.955 109.375,38.681 L109.375,45.893 C109.375,47.034 108.168,47.928 106.625,47.928 C105.082,47.928 103.875,47.034 103.875,45.893 C103.875,44.751 105.082,43.857 106.625,43.857 ZM106.625,46.571 C107.464,46.571 108.000,46.170 108.000,45.893 C108.000,45.616 107.464,45.214 106.625,45.214 C105.786,45.214 105.250,45.616 105.250,45.893 C105.250,46.170 105.786,46.571 106.625,46.571 Z"/>
<path fill-rule="evenodd"  fill="rgb(255, 255, 255)"
 d="M137.200,48.130 L137.200,50.750 L135.250,50.750 C134.891,50.750 134.600,51.031 134.600,51.375 C134.600,51.719 134.891,52.000 135.250,52.000 L141.750,52.000 C142.108,52.000 142.400,51.719 142.400,51.375 C142.400,51.031 142.108,50.750 141.750,50.750 L139.800,50.750 L139.800,48.123 C142.508,47.608 145.000,45.501 145.000,42.000 L145.000,40.125 C145.000,39.780 144.708,39.500 144.350,39.500 C143.992,39.500 143.700,39.780 143.700,40.125 L143.700,42.000 C143.700,45.282 141.082,47.000 138.500,47.000 C135.995,47.000 133.300,45.435 133.300,42.000 L133.300,40.125 C133.300,39.780 133.009,39.500 132.650,39.500 C132.291,39.500 132.000,39.780 132.000,40.125 L132.000,42.000 C132.000,45.550 134.448,47.632 137.200,48.130 ZM138.500,45.750 C140.650,45.750 142.400,44.068 142.400,42.000 L142.400,35.750 C142.400,33.683 140.650,32.000 138.500,32.000 C136.350,32.000 134.600,33.683 134.600,35.750 L134.600,42.000 C134.600,44.068 136.350,45.750 138.500,45.750 ZM135.900,35.750 C135.900,34.369 137.063,33.250 138.500,33.250 C139.937,33.250 141.100,34.369 141.100,35.750 L141.100,42.000 C141.100,43.382 139.937,44.500 138.500,44.500 C137.063,44.500 135.900,43.382 135.900,42.000 L135.900,35.750 Z"/>
<path fill-rule="evenodd"  fill="rgb(255, 255, 255)"
 d="M88.879,40.710 C88.763,40.866 88.581,40.948 88.397,40.948 C88.275,40.948 88.151,40.912 88.045,40.836 L77.504,33.299 L66.962,40.836 C66.696,41.026 66.323,40.969 66.128,40.710 C65.933,40.450 65.991,40.085 66.257,39.895 L77.151,32.106 C77.361,31.955 77.646,31.955 77.857,32.106 L88.750,39.895 C89.017,40.085 89.074,40.450 88.879,40.710 ZM69.144,40.968 C69.473,40.968 69.741,41.229 69.741,41.551 L69.741,50.833 L74.518,50.833 L74.518,45.766 C74.518,44.158 75.857,42.850 77.504,42.850 C79.150,42.850 80.490,44.158 80.490,45.766 L80.490,50.833 L85.267,50.833 L85.267,41.551 C85.267,41.229 85.534,40.968 85.864,40.968 C86.194,40.968 86.461,41.229 86.461,41.551 L86.461,51.416 C86.461,51.738 86.194,51.999 85.864,51.999 L79.893,51.999 C79.578,51.999 79.321,51.762 79.298,51.461 C79.296,51.448 79.295,51.433 79.295,51.416 L79.295,45.766 C79.295,44.801 78.492,44.017 77.504,44.017 C76.516,44.017 75.712,44.801 75.712,45.766 L75.712,51.416 C75.712,51.433 75.711,51.448 75.710,51.461 C75.686,51.762 75.429,51.999 75.115,51.999 L69.144,51.999 C68.814,51.999 68.546,51.738 68.546,51.416 L68.546,41.551 C68.546,41.229 68.814,40.968 69.144,40.968 Z"/>
</svg>