<svg 
 xmlns="http://www.w3.org/2000/svg"
 xmlns:xlink="http://www.w3.org/1999/xlink"
 width="30px" height="30px">
<path fill-rule="evenodd"  fill="rgb(255, 255, 255)"
 d="M14.987,29.987 C6.716,29.987 -0.013,23.258 -0.013,14.987 C-0.013,6.716 6.716,-0.013 14.987,-0.013 C23.258,-0.013 29.987,6.716 29.987,14.987 C29.987,23.258 23.258,29.987 14.987,29.987 ZM14.987,1.897 C7.769,1.897 1.897,7.769 1.897,14.987 C1.897,22.205 7.769,28.077 14.987,28.077 C22.205,28.077 28.077,22.205 28.077,14.987 C28.077,7.769 22.205,1.897 14.987,1.897 ZM17.793,21.295 C17.266,21.295 16.838,20.868 16.838,20.340 L16.838,9.634 C16.838,9.106 17.266,8.679 17.793,8.679 C18.321,8.679 18.748,9.106 18.748,9.634 L18.748,20.340 C18.748,20.868 18.321,21.295 17.793,21.295 ZM12.181,21.295 C11.653,21.295 11.226,20.868 11.226,20.340 L11.226,9.634 C11.226,9.106 11.653,8.679 12.181,8.679 C12.708,8.679 13.136,9.106 13.136,9.634 L13.136,20.340 C13.136,20.868 12.708,21.295 12.181,21.295 Z"/>
</svg>