<svg 
 xmlns="http://www.w3.org/2000/svg"
 xmlns:xlink="http://www.w3.org/1999/xlink"
 width="30px" height="30px">
<path fill-rule="evenodd"  fill="rgb(255, 255, 255)"
 d="M29.490,18.878 C28.453,22.747 25.971,25.981 22.501,27.984 C20.189,29.318 17.624,30.000 15.024,30.000 C13.721,30.000 12.410,29.829 11.117,29.482 C7.247,28.446 4.012,25.964 2.008,22.495 C0.005,19.026 -0.527,14.984 0.510,11.114 C1.547,7.245 4.029,4.011 7.499,2.008 C10.969,0.005 15.012,-0.527 18.883,0.510 C22.753,1.546 25.988,4.028 27.991,7.497 C29.995,10.967 30.527,15.008 29.490,18.878 ZM26.638,8.278 C24.844,5.170 21.946,2.947 18.478,2.018 C17.321,1.708 16.145,1.555 14.978,1.555 C12.649,1.555 10.351,2.165 8.280,3.360 C5.171,5.155 2.948,8.052 2.019,11.519 C1.089,14.985 1.566,18.606 3.361,21.714 C5.156,24.822 8.054,27.045 11.522,27.974 C14.989,28.903 18.611,28.426 21.719,26.632 C24.828,24.837 27.052,21.940 27.981,18.473 C28.910,15.007 28.433,11.386 26.638,8.278 ZM23.605,9.130 C23.371,9.130 23.140,9.026 22.986,8.828 C21.377,6.749 18.958,5.353 16.348,4.996 C15.921,4.938 15.622,4.544 15.680,4.117 C15.738,3.689 16.133,3.390 16.560,3.449 C19.571,3.860 22.364,5.472 24.222,7.871 C24.486,8.212 24.423,8.703 24.082,8.967 C23.940,9.077 23.772,9.130 23.605,9.130 ZM23.015,14.996 C23.015,15.587 22.710,16.116 22.198,16.411 L12.552,21.979 C12.296,22.126 12.016,22.200 11.735,22.200 C11.454,22.200 11.174,22.127 10.918,21.979 C10.406,21.683 10.100,21.154 10.100,20.563 L10.100,9.429 C10.100,8.838 10.406,8.309 10.918,8.013 C11.429,7.718 12.041,7.718 12.552,8.013 L22.198,13.581 C22.709,13.876 23.015,14.405 23.015,14.996 ZM21.416,14.933 L11.771,9.366 C11.764,9.362 11.752,9.355 11.736,9.355 C11.725,9.355 11.713,9.358 11.699,9.366 C11.662,9.387 11.662,9.415 11.662,9.429 L11.662,20.563 C11.662,20.577 11.662,20.605 11.699,20.626 C11.735,20.647 11.759,20.633 11.771,20.626 L21.416,15.059 C21.428,15.052 21.453,15.038 21.453,14.996 C21.453,14.954 21.428,14.940 21.416,14.933 Z"/>
</svg>