<svg 
 xmlns="http://www.w3.org/2000/svg"
 xmlns:xlink="http://www.w3.org/1999/xlink"
 width="11px" height="15px">
<path fill-rule="evenodd"  fill="rgb(255, 255, 255)"
 d="M10.587,14.989 C10.357,14.989 10.171,14.797 10.171,14.561 L10.171,0.440 C10.171,0.204 10.358,0.012 10.587,0.012 C10.817,0.012 11.003,0.204 11.003,0.440 L11.003,14.561 C11.003,14.797 10.817,14.989 10.587,14.989 ZM9.457,7.837 L0.668,14.898 C0.593,14.958 0.503,14.989 0.412,14.989 C0.350,14.989 0.288,14.975 0.230,14.945 C0.088,14.874 -0.003,14.724 -0.003,14.561 L-0.003,0.440 C-0.003,0.277 0.088,0.128 0.230,0.056 C0.372,-0.016 0.542,0.002 0.668,0.103 L9.457,7.162 C9.558,7.243 9.617,7.368 9.618,7.499 C9.618,7.630 9.558,7.755 9.457,7.837 ZM0.828,1.317 L0.828,13.684 L8.526,7.499 L0.828,1.317 Z"/>
<path fill-rule="evenodd"  fill="rgb(255, 255, 255)"
 d="M10.587,14.989 C10.357,14.989 10.171,14.797 10.171,14.561 L10.171,0.440 C10.171,0.204 10.358,0.012 10.587,0.012 C10.817,0.012 11.003,0.204 11.003,0.440 L11.003,14.561 C11.003,14.797 10.817,14.989 10.587,14.989 ZM9.457,7.837 L0.668,14.898 C0.593,14.958 0.503,14.989 0.412,14.989 C0.350,14.989 0.288,14.975 0.230,14.945 C0.088,14.874 -0.003,14.724 -0.003,14.561 L-0.003,0.440 C-0.003,0.277 0.088,0.128 0.230,0.056 C0.372,-0.016 0.542,0.002 0.668,0.103 L9.457,7.162 C9.558,7.243 9.617,7.368 9.618,7.499 C9.618,7.630 9.558,7.755 9.457,7.837 ZM0.828,1.317 L0.828,13.684 L8.526,7.499 L0.828,1.317 Z"/>
</svg>