<svg 
 xmlns="http://www.w3.org/2000/svg"
 xmlns:xlink="http://www.w3.org/1999/xlink"
 width="11px" height="15px">
<path fill-rule="evenodd"  fill="rgb(255, 255, 255)"
 d="M10.770,14.945 C10.712,14.975 10.649,14.989 10.588,14.989 C10.497,14.989 10.407,14.958 10.332,14.898 L1.543,7.837 C1.441,7.755 1.382,7.630 1.382,7.499 C1.383,7.368 1.441,7.243 1.543,7.162 L10.331,0.103 C10.457,0.002 10.628,-0.016 10.770,0.056 C10.912,0.128 11.003,0.277 11.003,0.440 L11.003,14.561 C11.003,14.724 10.912,14.874 10.770,14.945 ZM10.171,1.317 L2.474,7.499 L10.171,13.684 L10.171,1.317 ZM0.413,14.989 C0.183,14.989 -0.003,14.797 -0.003,14.561 L-0.003,0.440 C-0.003,0.204 0.183,0.012 0.413,0.012 C0.642,0.012 0.828,0.204 0.828,0.440 L0.828,14.561 C0.828,14.797 0.643,14.989 0.413,14.989 Z"/>
<path fill-rule="evenodd"  fill="rgb(255, 255, 255)"
 d="M10.770,14.945 C10.712,14.975 10.649,14.989 10.588,14.989 C10.497,14.989 10.407,14.958 10.332,14.898 L1.543,7.837 C1.441,7.755 1.382,7.630 1.382,7.499 C1.383,7.368 1.441,7.243 1.543,7.162 L10.331,0.103 C10.457,0.002 10.628,-0.016 10.770,0.056 C10.912,0.128 11.003,0.277 11.003,0.440 L11.003,14.561 C11.003,14.724 10.912,14.874 10.770,14.945 ZM10.171,1.317 L2.474,7.499 L10.171,13.684 L10.171,1.317 ZM0.413,14.989 C0.183,14.989 -0.003,14.797 -0.003,14.561 L-0.003,0.440 C-0.003,0.204 0.183,0.012 0.413,0.012 C0.642,0.012 0.828,0.204 0.828,0.440 L0.828,14.561 C0.828,14.797 0.643,14.989 0.413,14.989 Z"/>
</svg>