<svg 
 xmlns="http://www.w3.org/2000/svg"
 xmlns:xlink="http://www.w3.org/1999/xlink"
 width="12px" height="12px">
<defs>
<filter id="Filter_0">
    <feFlood flood-color="rgb(255, 255, 255)" flood-opacity="1" result="floodOut" />
    <feComposite operator="atop" in="floodOut" in2="SourceGraphic" result="compOut" />
    <feBlend mode="normal" in="compOut" in2="SourceGraphic" />
</filter>

</defs>
<g filter="url(#Filter_0)">
<path fill-rule="evenodd"  fill="rgb(59, 200, 231)"
 d="M0.010,0.552 C-0.020,0.286 0.152,0.043 0.399,0.011 C0.645,-0.021 0.869,0.165 0.899,0.431 L1.168,2.685 C2.183,1.053 3.900,0.043 5.752,0.043 C8.112,0.043 10.210,1.667 10.979,4.075 C11.061,4.325 10.934,4.600 10.703,4.689 C10.658,4.705 10.606,4.713 10.553,4.713 C10.367,4.713 10.195,4.584 10.128,4.390 C9.486,2.370 7.723,1.013 5.752,1.013 C4.139,1.013 2.638,1.934 1.802,3.404 L4.042,3.129 C4.289,3.097 4.513,3.291 4.535,3.558 C4.558,3.824 4.386,4.067 4.139,4.091 L0.914,4.487 C0.899,4.487 0.876,4.487 0.861,4.487 C0.637,4.487 0.443,4.309 0.421,4.067 L0.010,0.552 ZM11.106,7.040 L7.880,7.435 C7.634,7.468 7.455,7.702 7.484,7.969 C7.514,8.235 7.731,8.429 7.977,8.397 L9.926,8.163 C9.164,9.900 7.544,11.022 5.745,11.022 C3.721,11.022 1.899,9.560 1.317,7.468 C1.242,7.209 0.996,7.064 0.757,7.145 C0.518,7.225 0.384,7.492 0.458,7.751 C0.794,8.954 1.496,10.037 2.422,10.796 C3.385,11.580 4.535,12.000 5.745,12.000 C7.955,12.000 9.934,10.578 10.807,8.421 L11.121,11.111 C11.151,11.354 11.345,11.531 11.561,11.531 C11.584,11.531 11.599,11.531 11.621,11.531 C11.867,11.499 12.039,11.257 12.009,10.990 L11.591,7.476 C11.569,7.201 11.352,7.015 11.106,7.040 Z"/>
<path fill-rule="evenodd"  fill="rgb(59, 200, 231)"
 d="M0.010,0.552 C-0.020,0.286 0.152,0.043 0.399,0.011 C0.645,-0.021 0.869,0.165 0.899,0.431 L1.168,2.685 C2.183,1.053 3.900,0.043 5.752,0.043 C8.112,0.043 10.210,1.667 10.979,4.075 C11.061,4.325 10.934,4.600 10.703,4.689 C10.658,4.705 10.606,4.713 10.553,4.713 C10.367,4.713 10.195,4.584 10.128,4.390 C9.486,2.370 7.723,1.013 5.752,1.013 C4.139,1.013 2.638,1.934 1.802,3.404 L4.042,3.129 C4.289,3.097 4.513,3.291 4.535,3.558 C4.558,3.824 4.386,4.067 4.139,4.091 L0.914,4.487 C0.899,4.487 0.876,4.487 0.861,4.487 C0.637,4.487 0.443,4.309 0.421,4.067 L0.010,0.552 ZM11.106,7.040 L7.880,7.435 C7.634,7.468 7.455,7.702 7.484,7.969 C7.514,8.235 7.731,8.429 7.977,8.397 L9.926,8.163 C9.164,9.900 7.544,11.022 5.745,11.022 C3.721,11.022 1.899,9.560 1.317,7.468 C1.242,7.209 0.996,7.064 0.757,7.145 C0.518,7.225 0.384,7.492 0.458,7.751 C0.794,8.954 1.496,10.037 2.422,10.796 C3.385,11.580 4.535,12.000 5.745,12.000 C7.955,12.000 9.934,10.578 10.807,8.421 L11.121,11.111 C11.151,11.354 11.345,11.531 11.561,11.531 C11.584,11.531 11.599,11.531 11.621,11.531 C11.867,11.499 12.039,11.257 12.009,10.990 L11.591,7.476 C11.569,7.201 11.352,7.015 11.106,7.040 Z"/>
</g>
</svg>