<svg 
 xmlns="http://www.w3.org/2000/svg"
 xmlns:xlink="http://www.w3.org/1999/xlink"
 width="14px" height="14px">
<path fill-rule="evenodd"  fill="rgb(255, 255, 255)"
 d="M11.402,5.955 C11.305,6.051 11.177,6.100 11.050,6.100 C10.921,6.100 10.793,6.050 10.695,5.952 C10.500,5.756 10.502,5.439 10.698,5.245 L12.130,3.825 L11.519,3.825 C9.834,3.825 8.275,4.709 7.452,6.134 L6.811,7.243 C6.809,7.248 6.806,7.253 6.803,7.257 L6.033,8.591 C5.032,10.324 3.142,11.400 1.100,11.400 C0.824,11.400 0.600,11.176 0.600,10.900 C0.600,10.624 0.824,10.400 1.100,10.400 C2.786,10.400 4.344,9.515 5.167,8.091 L5.797,7.000 L5.167,5.909 C4.344,4.484 2.786,3.600 1.100,3.600 C0.824,3.600 0.600,3.376 0.600,3.100 C0.600,2.823 0.824,2.599 1.100,2.599 C3.142,2.599 5.032,3.676 6.033,5.408 L6.375,6.000 L6.587,5.633 C7.588,3.901 9.478,2.825 11.519,2.825 L12.079,2.825 L10.698,1.454 C10.502,1.260 10.500,0.943 10.695,0.747 C10.889,0.551 11.206,0.550 11.402,0.744 L12.956,2.286 C13.242,2.570 13.400,2.948 13.400,3.350 C13.400,3.752 13.242,4.129 12.956,4.413 L11.402,5.955 ZM7.864,8.461 C8.743,9.550 10.075,10.175 11.519,10.175 L12.130,10.175 L10.698,8.755 C10.502,8.560 10.500,8.244 10.695,8.048 C10.889,7.852 11.206,7.850 11.402,8.045 L12.956,9.586 C13.242,9.870 13.400,10.248 13.400,10.650 C13.400,11.052 13.242,11.430 12.956,11.714 L11.402,13.255 C11.305,13.352 11.177,13.400 11.050,13.400 C10.921,13.400 10.793,13.351 10.695,13.252 C10.500,13.056 10.502,12.739 10.698,12.545 L12.079,11.175 L11.519,11.175 C9.772,11.175 8.156,10.415 7.086,9.089 C6.912,8.874 6.946,8.559 7.161,8.386 C7.376,8.212 7.691,8.246 7.864,8.461 Z"/>
</svg>